<svg width="216" height="40" viewBox="0 0 216 40" fill="none" xmlns="http://www.w3.org/2000/svg">
<rect x="0.5" y="0.5" width="215" height="39" rx="7.5" fill="#F9F9FC"/>
<path d="M18.8011 17.3636C18.7415 16.8598 18.4995 16.4688 18.0753 16.1903C17.651 15.9119 17.1307 15.7727 16.5142 15.7727C16.0634 15.7727 15.669 15.8456 15.331 15.9915C14.9962 16.1373 14.7344 16.3378 14.5455 16.593C14.3598 16.8482 14.267 17.1383 14.267 17.4631C14.267 17.7348 14.3317 17.9685 14.4609 18.1641C14.5935 18.3563 14.7625 18.517 14.968 18.6463C15.1735 18.7723 15.389 18.8767 15.6143 18.9595C15.8397 19.0391 16.0469 19.1037 16.2358 19.1534L17.2699 19.4318C17.535 19.5014 17.83 19.5975 18.1548 19.7202C18.483 19.8428 18.7962 20.0102 19.0945 20.2223C19.3961 20.4311 19.6446 20.6996 19.8402 21.0277C20.0357 21.3558 20.1335 21.7585 20.1335 22.2358C20.1335 22.786 19.9893 23.2831 19.701 23.7273C19.416 24.1714 18.9983 24.5244 18.4482 24.7862C17.9013 25.0481 17.2367 25.179 16.4545 25.179C15.7254 25.179 15.094 25.0613 14.5604 24.826C14.0301 24.5907 13.6125 24.2625 13.3075 23.8416C13.0059 23.4207 12.8352 22.9318 12.7955 22.375H14.0682C14.1013 22.7595 14.2306 23.0777 14.456 23.3295C14.6847 23.5781 14.973 23.7637 15.321 23.8864C15.6723 24.0057 16.0502 24.0653 16.4545 24.0653C16.9252 24.0653 17.3478 23.9891 17.7223 23.8366C18.0968 23.6809 18.3935 23.4654 18.6122 23.1903C18.831 22.9119 18.9403 22.5871 18.9403 22.2159C18.9403 21.8778 18.8459 21.6027 18.657 21.3906C18.468 21.1785 18.2195 21.0062 17.9112 20.8736C17.603 20.741 17.2699 20.625 16.9119 20.5256L15.6591 20.1676C14.8636 19.9389 14.2339 19.6125 13.7699 19.1882C13.3059 18.764 13.0739 18.2088 13.0739 17.5227C13.0739 16.9527 13.228 16.4555 13.5362 16.0312C13.8478 15.6037 14.2654 15.2723 14.7891 15.0369C15.3161 14.7983 15.9044 14.679 16.554 14.679C17.2102 14.679 17.7936 14.7966 18.304 15.032C18.8144 15.264 19.2188 15.5821 19.517 15.9865C19.8187 16.3909 19.9777 16.8499 19.9943 17.3636H18.8011ZM25.2733 25.1591C24.5375 25.1591 23.9028 24.9967 23.3692 24.6719C22.8389 24.3438 22.4296 23.8864 22.1412 23.2997C21.8562 22.7098 21.7136 22.0237 21.7136 21.2415C21.7136 20.4593 21.8562 19.7699 22.1412 19.1733C22.4296 18.5734 22.8306 18.1061 23.3443 17.7713C23.8614 17.4332 24.4646 17.2642 25.154 17.2642C25.5517 17.2642 25.9445 17.3305 26.3323 17.4631C26.72 17.5956 27.073 17.8111 27.3912 18.1094C27.7094 18.4044 27.9629 18.7955 28.1519 19.2827C28.3408 19.7699 28.4352 20.3698 28.4352 21.0824V21.5795H22.5489V20.5653H27.2421C27.2421 20.1345 27.1559 19.75 26.9835 19.4119C26.8145 19.0739 26.5725 18.8071 26.2577 18.6115C25.9461 18.416 25.5782 18.3182 25.154 18.3182C24.6867 18.3182 24.2823 18.4342 23.9409 18.6662C23.6028 18.8949 23.3427 19.1932 23.1604 19.5611C22.9781 19.929 22.8869 20.3234 22.8869 20.7443V21.4205C22.8869 21.9972 22.9864 22.486 23.1852 22.8871C23.3874 23.2848 23.6675 23.5881 24.0254 23.7969C24.3834 24.0024 24.7993 24.1051 25.2733 24.1051C25.5815 24.1051 25.86 24.062 26.1085 23.9759C26.3604 23.8864 26.5775 23.7538 26.7598 23.5781C26.9421 23.3991 27.083 23.1771 27.1824 22.9119L28.3159 23.2301C28.1966 23.6146 27.9961 23.9527 27.7144 24.2443C27.4326 24.5327 27.0846 24.758 26.6703 24.9205C26.256 25.0795 25.7903 25.1591 25.2733 25.1591ZM31.4633 14.8182V25H30.29V14.8182H31.4633ZM36.884 25.1591C36.1482 25.1591 35.5135 24.9967 34.9799 24.6719C34.4496 24.3438 34.0403 23.8864 33.7519 23.2997C33.4669 22.7098 33.3243 22.0237 33.3243 21.2415C33.3243 20.4593 33.4669 19.7699 33.7519 19.1733C34.0403 18.5734 34.4413 18.1061 34.955 17.7713C35.4721 17.4332 36.0753 17.2642 36.7647 17.2642C37.1624 17.2642 37.5552 17.3305 37.943 17.4631C38.3307 17.5956 38.6837 17.8111 39.0019 18.1094C39.3201 18.4044 39.5736 18.7955 39.7626 19.2827C39.9515 19.7699 40.0459 20.3698 40.0459 21.0824V21.5795H34.1596V20.5653H38.8528C38.8528 20.1345 38.7666 19.75 38.5942 19.4119C38.4252 19.0739 38.1832 18.8071 37.8684 18.6115C37.5568 18.416 37.1889 18.3182 36.7647 18.3182C36.2974 18.3182 35.893 18.4342 35.5516 18.6662C35.2136 18.8949 34.9534 19.1932 34.7711 19.5611C34.5888 19.929 34.4976 20.3234 34.4976 20.7443V21.4205C34.4976 21.9972 34.5971 22.486 34.7959 22.8871C34.9981 23.2848 35.2782 23.5881 35.6361 23.7969C35.9941 24.0024 36.41 24.1051 36.884 24.1051C37.1922 24.1051 37.4707 24.062 37.7192 23.9759C37.9711 23.8864 38.1882 23.7538 38.3705 23.5781C38.5528 23.3991 38.6937 23.1771 38.7931 22.9119L39.9266 23.2301C39.8073 23.6146 39.6068 23.9527 39.3251 24.2443C39.0433 24.5327 38.6953 24.758 38.281 24.9205C37.8667 25.0795 37.4011 25.1591 36.884 25.1591ZM45.003 25.1591C44.2871 25.1591 43.6706 24.9901 43.1536 24.652C42.6365 24.3139 42.2388 23.8482 41.9604 23.255C41.682 22.6617 41.5428 21.9839 41.5428 21.2216C41.5428 20.446 41.6853 19.7616 41.9703 19.1683C42.2587 18.5717 42.6597 18.1061 43.1735 17.7713C43.6905 17.4332 44.2937 17.2642 44.9831 17.2642C45.5201 17.2642 46.004 17.3636 46.4348 17.5625C46.8657 17.7614 47.2187 18.0398 47.4938 18.3977C47.7689 18.7557 47.9396 19.1733 48.0059 19.6506H46.8326C46.7431 19.3026 46.5442 18.9943 46.236 18.7259C45.931 18.4541 45.5201 18.3182 45.003 18.3182C44.5456 18.3182 44.1446 18.4375 43.7999 18.6761C43.4585 18.9115 43.1917 19.2446 42.9995 19.6754C42.8105 20.103 42.7161 20.6051 42.7161 21.1818C42.7161 21.7718 42.8089 22.2855 42.9945 22.723C43.1834 23.1605 43.4486 23.5002 43.7899 23.7422C44.1346 23.9841 44.539 24.1051 45.003 24.1051C45.3079 24.1051 45.5847 24.0521 45.8333 23.946C46.0818 23.84 46.2923 23.6875 46.4647 23.4886C46.637 23.2898 46.7596 23.0511 46.8326 22.7727H48.0059C47.9396 23.2235 47.7755 23.6295 47.5137 23.9908C47.2551 24.3487 46.9121 24.6338 46.4845 24.8459C46.0603 25.0547 45.5665 25.1591 45.003 25.1591ZM53.1121 17.3636V18.358H49.1547V17.3636H53.1121ZM50.3081 15.5341H51.4814V22.8125C51.4814 23.1439 51.5294 23.3925 51.6256 23.5582C51.725 23.7206 51.8509 23.83 52.0034 23.8864C52.1592 23.9394 52.3232 23.9659 52.4956 23.9659C52.6249 23.9659 52.7309 23.9593 52.8138 23.946C52.8966 23.9295 52.9629 23.9162 53.0126 23.9062L53.2513 24.9602C53.1717 24.9901 53.0607 25.0199 52.9182 25.0497C52.7757 25.0829 52.595 25.0994 52.3763 25.0994C52.0448 25.0994 51.72 25.0282 51.4018 24.8857C51.087 24.7431 50.8251 24.526 50.6163 24.2344C50.4108 23.9427 50.3081 23.5748 50.3081 23.1307V15.5341ZM61.2016 25.179C60.7177 25.179 60.2786 25.0878 59.8842 24.9055C59.4898 24.7199 59.1766 24.4531 58.9445 24.1051C58.7125 23.7538 58.5965 23.3295 58.5965 22.8324C58.5965 22.3949 58.6827 22.0402 58.8551 21.7685C59.0274 21.4934 59.2578 21.2779 59.5461 21.1222C59.8345 20.9664 60.1526 20.8504 60.5007 20.7741C60.852 20.6946 61.205 20.6316 61.5596 20.5852C62.0236 20.5256 62.3998 20.4808 62.6882 20.451C62.9798 20.4179 63.1919 20.3632 63.3245 20.2869C63.4604 20.2107 63.5284 20.0781 63.5284 19.8892V19.8494C63.5284 19.3589 63.3941 18.9777 63.1257 18.706C62.8605 18.4342 62.4578 18.2983 61.9176 18.2983C61.3574 18.2983 60.9183 18.4209 60.6001 18.6662C60.2819 18.9115 60.0582 19.1733 59.9289 19.4517L58.8153 19.054C59.0141 18.59 59.2793 18.2287 59.6107 17.9702C59.9455 17.7083 60.3101 17.526 60.7045 17.4233C61.1022 17.3172 61.4933 17.2642 61.8778 17.2642C62.1231 17.2642 62.4048 17.294 62.723 17.3537C63.0445 17.41 63.3543 17.5277 63.6526 17.7067C63.9543 17.8857 64.2045 18.1558 64.4034 18.517C64.6022 18.8783 64.7016 19.3622 64.7016 19.9688V25H63.5284V23.9659H63.4687C63.3891 24.1316 63.2566 24.3089 63.071 24.4979C62.8854 24.6868 62.6384 24.8475 62.3302 24.9801C62.022 25.1127 61.6458 25.179 61.2016 25.179ZM61.3806 24.125C61.8446 24.125 62.2357 24.0339 62.5539 23.8516C62.8754 23.6693 63.1174 23.4339 63.2798 23.1456C63.4455 22.8572 63.5284 22.554 63.5284 22.2358V21.1619C63.4786 21.2216 63.3693 21.2763 63.2002 21.326C63.0345 21.3724 62.8423 21.4138 62.6235 21.4503C62.4081 21.4834 62.1976 21.5133 61.9921 21.5398C61.79 21.563 61.6259 21.5829 61.4999 21.5994C61.195 21.6392 60.91 21.7038 60.6448 21.7933C60.383 21.8795 60.1709 22.0104 60.0085 22.1861C59.8494 22.3584 59.7698 22.5937 59.7698 22.892C59.7698 23.2997 59.9206 23.608 60.2222 23.8168C60.5272 24.0223 60.9133 24.125 61.3806 24.125ZM79.2729 18H78.04C77.9671 17.6454 77.8395 17.3338 77.6572 17.0653C77.4782 16.7969 77.2594 16.5715 77.0009 16.3892C76.7457 16.2036 76.4623 16.0644 76.1508 15.9716C75.8392 15.8788 75.5144 15.8324 75.1763 15.8324C74.5599 15.8324 74.0014 15.9882 73.5009 16.2997C73.0038 16.6113 72.6077 17.0703 72.3127 17.6768C72.021 18.2834 71.8752 19.0275 71.8752 19.9091C71.8752 20.7907 72.021 21.5348 72.3127 22.1413C72.6077 22.7479 73.0038 23.2069 73.5009 23.5185C74.0014 23.83 74.5599 23.9858 75.1763 23.9858C75.5144 23.9858 75.8392 23.9394 76.1508 23.8466C76.4623 23.7538 76.7457 23.6162 77.0009 23.4339C77.2594 23.2483 77.4782 23.0213 77.6572 22.7528C77.8395 22.4811 77.9671 22.1695 78.04 21.8182H79.2729C79.1801 22.3385 79.0111 22.8042 78.7658 23.2152C78.5206 23.6262 78.2156 23.9759 77.8511 24.2642C77.4865 24.5492 77.0771 24.7663 76.6231 24.9155C76.1723 25.0646 75.6901 25.1392 75.1763 25.1392C74.308 25.1392 73.5357 24.9271 72.8596 24.5028C72.1834 24.0786 71.6515 23.4754 71.2637 22.6932C70.8759 21.911 70.682 20.983 70.682 19.9091C70.682 18.8352 70.8759 17.9072 71.2637 17.125C71.6515 16.3428 72.1834 15.7396 72.8596 15.3153C73.5357 14.8911 74.308 14.679 75.1763 14.679C75.6901 14.679 76.1723 14.7536 76.6231 14.9027C77.0771 15.0518 77.4865 15.2706 77.8511 15.5589C78.2156 15.844 78.5206 16.192 78.7658 16.603C79.0111 17.0107 79.1801 17.4763 79.2729 18ZM84.2785 25.1591C83.5891 25.1591 82.9842 24.995 82.4638 24.6669C81.9468 24.3388 81.5424 23.8797 81.2508 23.2898C80.9624 22.6998 80.8182 22.0104 80.8182 21.2216C80.8182 20.4261 80.9624 19.7318 81.2508 19.1385C81.5424 18.5452 81.9468 18.0845 82.4638 17.7564C82.9842 17.4283 83.5891 17.2642 84.2785 17.2642C84.9679 17.2642 85.5711 17.4283 86.0881 17.7564C86.6085 18.0845 87.0129 18.5452 87.3012 19.1385C87.5929 19.7318 87.7387 20.4261 87.7387 21.2216C87.7387 22.0104 87.5929 22.6998 87.3012 23.2898C87.0129 23.8797 86.6085 24.3388 86.0881 24.6669C85.5711 24.995 84.9679 25.1591 84.2785 25.1591ZM84.2785 24.1051C84.8022 24.1051 85.233 23.9709 85.5711 23.7024C85.9092 23.4339 86.1594 23.081 86.3218 22.6435C86.4842 22.206 86.5654 21.732 86.5654 21.2216C86.5654 20.7112 86.4842 20.2356 86.3218 19.7947C86.1594 19.3539 85.9092 18.9976 85.5711 18.7259C85.233 18.4541 84.8022 18.3182 84.2785 18.3182C83.7548 18.3182 83.3239 18.4541 82.9859 18.7259C82.6478 18.9976 82.3976 19.3539 82.2352 19.7947C82.0727 20.2356 81.9915 20.7112 81.9915 21.2216C81.9915 21.732 82.0727 22.206 82.2352 22.6435C82.3976 23.081 82.6478 23.4339 82.9859 23.7024C83.3239 23.9709 83.7548 24.1051 84.2785 24.1051ZM94.4122 21.8778V17.3636H95.5855V25H94.4122V23.7074H94.3327C94.1537 24.0952 93.8753 24.425 93.4974 24.6967C93.1196 24.9652 92.6423 25.0994 92.0656 25.0994C91.5884 25.0994 91.1641 24.995 90.7929 24.7862C90.4217 24.5741 90.13 24.2559 89.9179 23.8317C89.7058 23.4041 89.5997 22.8655 89.5997 22.2159V17.3636H90.773V22.1364C90.773 22.6932 90.9288 23.1373 91.2403 23.4688C91.5552 23.8002 91.9563 23.9659 92.4435 23.9659C92.7351 23.9659 93.0318 23.8913 93.3334 23.7422C93.6383 23.593 93.8935 23.3643 94.099 23.0561C94.3078 22.7479 94.4122 22.3551 94.4122 21.8778ZM97.8045 25V17.3636H98.938V18.517H99.0176C99.1568 18.1392 99.4087 17.8326 99.7732 17.5973C100.138 17.362 100.549 17.2443 101.006 17.2443C101.092 17.2443 101.2 17.246 101.329 17.2493C101.459 17.2526 101.556 17.2576 101.623 17.2642V18.4574C101.583 18.4474 101.492 18.4325 101.349 18.4126C101.21 18.3894 101.063 18.3778 100.907 18.3778C100.536 18.3778 100.204 18.4557 99.9124 18.6115C99.6241 18.764 99.3954 18.9761 99.2264 19.2479C99.0606 19.5163 98.9778 19.8229 98.9778 20.1676V25H97.8045ZM108.493 19.0739L107.439 19.3722C107.372 19.1965 107.275 19.0258 107.145 18.8601C107.019 18.6911 106.847 18.5518 106.628 18.4425C106.409 18.3331 106.129 18.2784 105.788 18.2784C105.321 18.2784 104.931 18.3861 104.62 18.6016C104.311 18.8137 104.157 19.0838 104.157 19.4119C104.157 19.7036 104.263 19.9339 104.476 20.103C104.688 20.272 105.019 20.4129 105.47 20.5256L106.603 20.804C107.286 20.9697 107.795 21.2232 108.13 21.5646C108.464 21.9027 108.632 22.3385 108.632 22.8722C108.632 23.3097 108.506 23.7008 108.254 24.0455C108.005 24.3902 107.657 24.6619 107.21 24.8608C106.762 25.0597 106.242 25.1591 105.649 25.1591C104.87 25.1591 104.225 24.9901 103.715 24.652C103.204 24.3139 102.881 23.8201 102.745 23.1705L103.859 22.892C103.965 23.303 104.166 23.6113 104.461 23.8168C104.759 24.0223 105.148 24.125 105.629 24.125C106.176 24.125 106.61 24.009 106.931 23.777C107.256 23.5417 107.419 23.2599 107.419 22.9318C107.419 22.6667 107.326 22.4446 107.14 22.2656C106.955 22.0833 106.67 21.9474 106.285 21.858L105.012 21.5597C104.313 21.3939 103.799 21.1371 103.471 20.7891C103.146 20.4377 102.984 19.9986 102.984 19.4716C102.984 19.0407 103.105 18.6596 103.347 18.3281C103.592 17.9967 103.925 17.7365 104.346 17.5476C104.771 17.3587 105.251 17.2642 105.788 17.2642C106.544 17.2642 107.137 17.4299 107.568 17.7614C108.002 18.0928 108.31 18.5303 108.493 19.0739ZM113.67 25.1591C112.934 25.1591 112.299 24.9967 111.766 24.6719C111.235 24.3438 110.826 23.8864 110.538 23.2997C110.252 22.7098 110.11 22.0237 110.11 21.2415C110.11 20.4593 110.252 19.7699 110.538 19.1733C110.826 18.5734 111.227 18.1061 111.741 17.7713C112.258 17.4332 112.861 17.2642 113.55 17.2642C113.948 17.2642 114.341 17.3305 114.729 17.4631C115.116 17.5956 115.469 17.8111 115.788 18.1094C116.106 18.4044 116.359 18.7955 116.548 19.2827C116.737 19.7699 116.832 20.3698 116.832 21.0824V21.5795H110.945V20.5653H115.638C115.638 20.1345 115.552 19.75 115.38 19.4119C115.211 19.0739 114.969 18.8071 114.654 18.6115C114.342 18.416 113.975 18.3182 113.55 18.3182C113.083 18.3182 112.679 18.4342 112.337 18.6662C111.999 18.8949 111.739 19.1932 111.557 19.5611C111.374 19.929 111.283 20.3234 111.283 20.7443V21.4205C111.283 21.9972 111.383 22.486 111.582 22.8871C111.784 23.2848 112.064 23.5881 112.422 23.7969C112.78 24.0024 113.196 24.1051 113.67 24.1051C113.978 24.1051 114.256 24.062 114.505 23.9759C114.757 23.8864 114.974 23.7538 115.156 23.5781C115.338 23.3991 115.479 23.1771 115.579 22.9119L116.712 23.2301C116.593 23.6146 116.392 23.9527 116.111 24.2443C115.829 24.5327 115.481 24.758 115.067 24.9205C114.652 25.0795 114.187 25.1591 113.67 25.1591Z" fill="#858D9D"/>
<path fill-rule="evenodd" clip-rule="evenodd" d="M199.59 16.9106C199.264 16.5851 198.737 16.5851 198.411 16.9106L194 21.3213L189.59 16.9106C189.264 16.5851 188.737 16.5851 188.411 16.9106C188.086 17.236 188.086 17.7637 188.411 18.0891L193.706 23.3837C193.868 23.5464 194.132 23.5464 194.295 23.3837L199.59 18.0891C199.915 17.7637 199.915 17.236 199.59 16.9106Z" fill="#858D9D"/>
<rect x="0.5" y="0.5" width="215" height="39" rx="7.5" stroke="#E0E2E7"/>
</svg>
