<svg width="18" height="12" viewBox="0 0 18 12" fill="none" xmlns="http://www.w3.org/2000/svg">
<path fill-rule="evenodd" clip-rule="evenodd" d="M8.99996 0.166748C14.1083 0.166748 16.5256 3.59172 17.3765 5.1929C17.6475 5.70275 17.6475 6.29742 17.3765 6.80727C16.5256 8.40845 14.1083 11.8334 8.99996 11.8334C3.89164 11.8334 1.47436 8.40844 0.623389 6.80727C0.352425 6.29742 0.352425 5.70274 0.62339 5.1929C1.47436 3.59172 3.89164 0.166748 8.99996 0.166748ZM4.69692 3.06483C3.31336 3.98153 2.50548 5.20294 2.09512 5.97507C2.09054 5.98369 2.08865 5.98967 2.08783 5.99295C2.08699 5.9963 2.08683 6.00008 2.08683 6.00008C2.08683 6.00008 2.08699 6.00387 2.08783 6.00721C2.08865 6.01049 2.09054 6.01647 2.09512 6.0251C2.50548 6.79723 3.31336 8.01863 4.69692 8.93534C4.1257 8.09955 3.79163 7.08883 3.79163 6.00008C3.79163 4.91133 4.1257 3.90061 4.69692 3.06483ZM13.303 8.93533C14.6866 8.01862 15.4944 6.79722 15.9048 6.0251C15.9094 6.01647 15.9113 6.01049 15.9121 6.00721C15.9126 6.00504 15.913 6.00199 15.913 6.00199L15.9131 6.00008L15.9128 5.99641L15.9121 5.99295C15.9113 5.98967 15.9094 5.98369 15.9048 5.97507C15.4944 5.20294 14.6866 3.98154 13.303 3.06484C13.8742 3.90062 14.2083 4.91134 14.2083 6.00008C14.2083 7.08882 13.8742 8.09954 13.303 8.93533ZM5.4583 6.00008C5.4583 4.04407 7.04396 2.45841 8.99997 2.45841C10.956 2.45841 12.5416 4.04407 12.5416 6.00008C12.5416 7.95609 10.956 9.54175 8.99997 9.54175C7.04396 9.54175 5.4583 7.95609 5.4583 6.00008Z" fill="#667085"/>
</svg>
