<svg width="12" height="12" viewBox="0 0 12 12" fill="none" xmlns="http://www.w3.org/2000/svg">
<path d="M11.1723 9.99409C11.4977 10.3195 11.4977 10.8472 11.1723 11.1726C10.8468 11.498 10.3192 11.498 9.99375 11.1726L5.9997 7.17861L2.00577 11.1726C1.68033 11.4981 1.1527 11.4981 0.827256 11.1726C0.501816 10.8472 0.501812 10.3195 0.827246 9.99411L4.82118 6.00011L0.827087 2.00607C0.501647 1.68064 0.501649 1.15301 0.827088 0.827573C1.15253 0.502138 1.68017 0.502137 2.00561 0.827571L5.99968 4.82158L9.99361 0.827586C10.319 0.502146 10.8467 0.502143 11.1721 0.827577C11.4976 1.15301 11.4976 1.68065 11.1721 2.00609L7.1782 6.00009L11.1723 9.99409Z" fill="#858D9D"/>
</svg>
