<svg width="16" height="18" viewBox="0 0 16 18" fill="none" xmlns="http://www.w3.org/2000/svg">
<path d="M6.33342 7.12508C6.79365 7.12508 7.16675 7.49818 7.16675 7.95842V12.9584C7.16675 13.4187 6.79365 13.7917 6.33342 13.7917C5.87318 13.7917 5.50008 13.4187 5.50008 12.9584V7.95842C5.50008 7.49818 5.87318 7.12508 6.33342 7.12508Z" fill="#667085"/>
<path d="M10.5001 7.95842C10.5001 7.49818 10.127 7.12508 9.66675 7.12508C9.20651 7.12508 8.83342 7.49818 8.83342 7.95842V12.9584C8.83342 13.4187 9.20651 13.7917 9.66675 13.7917C10.127 13.7917 10.5001 13.4187 10.5001 12.9584V7.95842Z" fill="#667085"/>
<path fill-rule="evenodd" clip-rule="evenodd" d="M13.0001 4.00008V3.16675C13.0001 1.78604 11.8808 0.666748 10.5001 0.666748H5.50008C4.11937 0.666748 3.00008 1.78604 3.00008 3.16675V4.00008H1.75008C1.28984 4.00008 0.916748 4.37318 0.916748 4.83342C0.916748 5.29365 1.28984 5.66675 1.75008 5.66675H2.16675V14.8334C2.16675 16.2141 3.28604 17.3334 4.66675 17.3334H11.3334C12.7141 17.3334 13.8334 16.2141 13.8334 14.8334V5.66675H14.2501C14.7103 5.66675 15.0834 5.29365 15.0834 4.83342C15.0834 4.37318 14.7103 4.00008 14.2501 4.00008H13.0001ZM10.5001 2.33341H5.50008C5.03984 2.33341 4.66675 2.70651 4.66675 3.16675V4.00008H11.3334V3.16675C11.3334 2.70651 10.9603 2.33341 10.5001 2.33341ZM12.1667 5.66675H3.83341V14.8334C3.83341 15.2937 4.20651 15.6667 4.66675 15.6667H11.3334C11.7937 15.6667 12.1667 15.2937 12.1667 14.8334V5.66675Z" fill="#667085"/>
</svg>
