<svg width="15" height="10" viewBox="0 0 15 10" fill="none" xmlns="http://www.w3.org/2000/svg">
<path fill-rule="evenodd" clip-rule="evenodd" d="M7.49995 0.333252C11.5866 0.333252 13.5204 3.07323 14.2012 4.35417C14.418 4.76205 14.418 5.23779 14.2012 5.64567C13.5204 6.92661 11.5866 9.66659 7.49995 9.66659C3.41328 9.66659 1.47946 6.92661 0.798687 5.64567C0.581915 5.23779 0.581916 4.76205 0.798687 4.35417C1.47946 3.07323 3.41328 0.333252 7.49995 0.333252ZM4.05751 2.65172C2.95067 3.38508 2.30436 4.3622 1.97607 4.97991C1.97241 4.9868 1.9709 4.99159 1.97024 4.99422C1.96957 4.99689 1.96944 4.99992 1.96944 4.99992C1.96944 4.99992 1.96957 5.00295 1.97024 5.00562C1.9709 5.00825 1.97241 5.01303 1.97607 5.01993C2.30436 5.63763 2.95067 6.61476 4.05751 7.34812C3.60053 6.67949 3.33328 5.87092 3.33328 4.99992C3.33328 4.12892 3.60053 3.32034 4.05751 2.65172ZM10.9424 7.34811C12.0492 6.61475 12.6955 5.63763 13.0238 5.01993C13.0275 5.01303 13.029 5.00825 13.0297 5.00562C13.0301 5.00389 13.0304 5.00144 13.0304 5.00144L13.0304 4.99992L13.0302 4.99698L13.0297 4.99422C13.029 4.99159 13.0275 4.9868 13.0238 4.97991C12.6955 4.3622 12.0492 3.38509 10.9424 2.65172C11.3994 3.32035 11.6666 4.12892 11.6666 4.99992C11.6666 5.87091 11.3994 6.67949 10.9424 7.34811ZM4.66662 4.99992C4.66662 3.43511 5.93514 2.16659 7.49995 2.16659C9.06476 2.16659 10.3333 3.43511 10.3333 4.99992C10.3333 6.56473 9.06476 7.83325 7.49995 7.83325C5.93514 7.83325 4.66662 6.56473 4.66662 4.99992Z" fill="#13B2E4"/>
</svg>
