<svg width="4" height="14" viewBox="0 0 4 14" fill="none" xmlns="http://www.w3.org/2000/svg">
<path d="M3.66659 1.99992C3.66659 2.92039 2.92039 3.66659 1.99992 3.66659C1.07944 3.66659 0.333252 2.92039 0.333252 1.99992C0.333252 1.07944 1.07944 0.333252 1.99992 0.333252C2.92039 0.333252 3.66659 1.07944 3.66659 1.99992Z" fill="#858D9D"/>
<path d="M3.66659 6.99992C3.66659 7.92039 2.92039 8.66658 1.99992 8.66658C1.07944 8.66658 0.333252 7.92039 0.333252 6.99992C0.333252 6.07944 1.07944 5.33325 1.99992 5.33325C2.92039 5.33325 3.66659 6.07944 3.66659 6.99992Z" fill="#858D9D"/>
<path d="M1.99992 13.6666C2.92039 13.6666 3.66659 12.9204 3.66659 11.9999C3.66659 11.0794 2.92039 10.3333 1.99992 10.3333C1.07944 10.3333 0.333252 11.0794 0.333252 11.9999C0.333252 12.9204 1.07944 13.6666 1.99992 13.6666Z" fill="#858D9D"/>
</svg>
