<svg width="17" height="17" viewBox="0 0 17 17" fill="none" xmlns="http://www.w3.org/2000/svg">
<path fill-rule="evenodd" clip-rule="evenodd" d="M15.3047 5.82016C16.281 4.84385 16.281 3.26093 15.3047 2.28462L14.7155 1.69537C13.7391 0.719057 12.1562 0.719057 11.1799 1.69537L1.69097 11.1843C1.34624 11.529 1.10982 11.967 1.01082 12.4444L0.341106 15.6738C0.219324 16.261 0.739063 16.7807 1.32629 16.6589L4.55565 15.9892C5.03302 15.8902 5.47103 15.6538 5.81577 15.3091L15.3047 5.82016ZM14.1262 3.46313L13.5369 2.87388C13.2115 2.54844 12.6839 2.54844 12.3584 2.87388L11.4745 3.75779L13.2423 5.52556L14.1262 4.64165C14.4516 4.31621 14.4516 3.78857 14.1262 3.46313ZM12.0638 6.70407L10.296 4.9363L2.86948 12.3628C2.75457 12.4777 2.67577 12.6237 2.64277 12.7829L2.23082 14.7692L4.21721 14.3573C4.37634 14.3243 4.52234 14.2455 4.63726 14.1306L12.0638 6.70407Z" fill="#667085"/>
</svg>
