<svg width="20" height="22" viewBox="0 0 20 22" fill="none" xmlns="http://www.w3.org/2000/svg">
<path d="M13.9668 9.44796C14.352 9.05219 14.3434 8.41908 13.9476 8.03388C13.5519 7.64867 12.9188 7.65724 12.5335 8.05302L9.27382 11.4022L7.87563 10.2814C7.44471 9.93591 6.81535 10.0052 6.46991 10.4361C6.12447 10.8671 6.19377 11.4964 6.62469 11.8418L9.08583 13.8148C9.28679 13.9759 9.57724 13.9579 9.75687 13.7734L13.9668 9.44796Z" fill="#5C59E8"/>
<path fill-rule="evenodd" clip-rule="evenodd" d="M8.60947 1.34575C9.38482 0.595686 10.6153 0.595686 11.3907 1.34575L12.7194 2.6312L14.55 2.37228C15.6181 2.22119 16.6136 2.94446 16.8 4.00701L17.1194 5.82798L18.7526 6.69449C19.7055 7.2001 20.0857 8.37037 19.612 9.33955L18.8001 11.0005L19.612 12.6614C20.0857 13.6306 19.7055 14.8009 18.7526 15.3065L17.1194 16.173L16.8 17.994C16.6136 19.0565 15.6181 19.7798 14.55 19.6287L12.7194 19.3698L11.3907 20.6552C10.6153 21.4053 9.38482 21.4053 8.60947 20.6552L7.28071 19.3698L5.45016 19.6287C4.38202 19.7798 3.38652 19.0565 3.20014 17.994L2.88071 16.173L1.24758 15.3065C0.294624 14.8009 -0.0856198 13.6306 0.388143 12.6614L1.20006 11.0005L0.388143 9.33955C-0.0856197 8.37037 0.294624 7.2001 1.24758 6.69449L2.88071 5.82798L3.20014 4.00701C3.38652 2.94446 4.38202 2.22119 5.45016 2.37228L7.28071 2.6312L8.60947 1.34575ZM10.0001 2.7832L12.0315 4.74841L14.8301 4.35257L15.3184 7.13649L17.8152 8.46121L16.5739 11.0005L17.8152 13.5398L15.3184 14.8645L14.8301 17.6484L12.0315 17.2526L10.0001 19.2178L7.96864 17.2526L5.17006 17.6484L4.68172 14.8645L2.18495 13.5398L3.42623 11.0005L2.18495 8.46121L4.68172 7.13649L5.17006 4.35257L7.96864 4.74841L10.0001 2.7832Z" fill="#5C59E8"/>
</svg>
